<?xml version="1.0" encoding="utf-8"?>
<!-- Generator: Adobe Illustrator 26.0.1, SVG Export Plug-In . SVG Version: 6.00 Build 0)  -->
<svg version="1.1" id="Layer_1" xmlns="http://www.w3.org/2000/svg" xmlns:xlink="http://www.w3.org/1999/xlink" x="0px" y="0px"
	 viewBox="0 0 1080 1080" style="enable-background:new 0 0 1080 1080;" xml:space="preserve">
<style type="text/css">
	.st0{fill:none;stroke:#14B8A6;stroke-width:12;stroke-miterlimit:10;}
	.st1{fill:#14B8A6;}
</style>
<g>
	<path class="st0" d="M795.11,692.94c-2.71,2.24-4.07,5.73-3.61,9.22l3.27,24.81l11.66,88.78c1.07,8.14-7.08,14.39-14.66,11.24
		l-82.72-34.31l-59.95-24.86c-2.05-0.85-4.33-1-6.48-0.45c-38.79,9.91-80.68,15.31-124.41,15.31c-199.6,0-361.4-112.41-361.4-251.07
		c0-138.65,161.81-251.06,361.4-251.06s361.4,112.41,361.4,251.06C879.61,593.05,847.84,649.31,795.11,692.94z"/>
	<g>
		<path class="st1" d="M544.24,595.68c-3.91,3.78-10.72,4.97-16.38,2.86c-27.14-10.14-63.7-33.89-63.7-61.56
			c0-21.23,16.8-38.56,63.53-67.06c40.16-24.03,60.61-40.23,60.61-60.91c0-20.12-17.53-37.44-49.66-37.44
			c-48.19,0-76.67,34.65-86.17,34.65c-10.95,0-31.4-12.85-31.4-26.26c0-7.82,3.65-13.41,13.88-20.68
			c23.37-15.09,56.22-20.12,78.86-20.12c66.45,0,116.11,44.15,116.11,87.73c0,23.47-10.22,43.59-51.85,69.85
			c-36.51,23.47-56.23,34.09-56.23,52.53c0,12.74,7.29,21.89,21.43,32.84C548.03,585.8,548.44,591.62,544.24,595.68L544.24,595.68z
			 M519.66,718.03c-26.29,0-45.27-14.53-45.27-35.76c0-20.12,18.25-35.76,45.27-35.76c25.56,0,45.27,15.65,45.27,35.76
			C564.93,703.5,545.22,718.03,519.66,718.03z"/>
	</g>
</g>
</svg>
